<svg xmlns="http://www.w3.org/2000/svg" xmlns:xlink="http://www.w3.org/1999/xlink" viewBox="0,0,256,256" width="96px" height="96px" fill-rule="nonzero"><defs><linearGradient x1="32" y1="9.809" x2="32" y2="61.127" gradientUnits="userSpaceOnUse" id="color-1"><stop offset="0" stop-color="#6d28d9"></stop><stop offset="1" stop-color="#c822ff"></stop></linearGradient><linearGradient x1="23.5" y1="37" x2="23.5" y2="48.571" gradientUnits="userSpaceOnUse" id="color-2"><stop offset="0" stop-color="#6dc7ff"></stop><stop offset="1" stop-color="#e6abff"></stop></linearGradient></defs><g fill="none" fill-rule="nonzero" stroke="none" stroke-width="1" stroke-linecap="butt" stroke-linejoin="miter" stroke-miterlimit="10" stroke-dasharray="" stroke-dashoffset="0" font-family="none" font-weight="none" font-size="none" text-anchor="none" style="mix-blend-mode: normal"><g transform="scale(4,4)"><path d="M30.988,58.001c-5.174,0 -10.139,-1.927 -14.035,-5.484c-4.212,-3.846 -6.673,-9.122 -6.931,-14.858c-0.35,-7.789 3.521,-15.14 10.104,-19.185c0.386,-0.262 0.925,-0.291 1.371,-0.053c0.44,0.234 0.714,0.689 0.714,1.188c0.216,2.665 0.78,4.914 1.605,6.387c8.846,-3.446 9.551,-11.879 8.553,-18.422c-0.007,-0.05 -0.011,-0.1 -0.011,-0.15c0,-0.468 0.221,-0.905 0.59,-1.171c0.356,-0.256 0.796,-0.322 1.21,-0.183c0.042,0.014 0.084,0.031 0.125,0.051c9.531,4.724 19.717,15.015 19.717,29.736c0,12.404 -9.684,22.121 -22.046,22.121c-0.323,0.015 -0.645,0.023 -0.966,0.023zM20.316,20.737c-5.452,3.78 -8.598,10.126 -8.296,16.831c0.233,5.202 2.464,9.986 6.281,13.472c3.743,3.418 8.574,5.176 13.607,4.939c11.287,0 20.092,-8.838 20.092,-20.122c0,-16.096 -12.22,-24.494 -17.49,-27.363c1.142,9.867 -2.609,16.809 -10.645,19.615c-0.106,0.037 -0.217,0.056 -0.33,0.056h-0.16c-0.321,0 -0.623,-0.154 -0.811,-0.414c-1.37,-1.898 -1.981,-4.697 -2.248,-7.014zM21.208,20.154c-0.014,0.009 -0.027,0.018 -0.041,0.025c0.014,-0.007 0.028,-0.015 0.041,-0.025zM20.214,19.689c0,0.019 0.001,0.039 0.005,0.061c-0.002,-0.021 -0.003,-0.041 -0.005,-0.061z" fill="url(#color-1)"></path><g fill="url(#color-2)"><path d="M31,52c-8.271,0 -15,-6.729 -15,-15h2c0,7.168 5.832,13 13,13z"></path></g></g></g></svg>